<?xml version="1.0" encoding="utf-8"?>
<!-- Generator: Adobe Illustrator 26.0.0, SVG Export Plug-In . SVG Version: 6.00 Build 0)  -->
<svg version="1.1" id="Layer_1" xmlns="http://www.w3.org/2000/svg" xmlns:xlink="http://www.w3.org/1999/xlink" x="0px" y="0px"
	 viewBox="0 0 100 200" style="enable-background:new 0 0 100 200;" xml:space="preserve">
<style type="text/css">
	.st0{fill:#231F20;}
</style>
<g>
	<g>
		<path class="st0" d="M64.6,27.6c1.4,2.2,2.6,4.5,3.7,6.9c0.1,0.3,0.1,0.3,0.1,0.1c0.1,0.2,0.1,0.3,0.2,0.5
			c0.1,0.2,0.2,0.5,0.3,0.7c0.2,0.7,0.5,1.3,0.7,2c0.4,1.2,0.8,2.5,1.1,3.8c0.3,1.3,1.8,2.2,3.1,1.7c1.3-0.4,2.1-1.7,1.7-3.1
			c-1.3-5.4-3.5-10.5-6.5-15.2c-0.7-1.1-2.3-1.7-3.4-0.9C64.4,24.9,63.8,26.4,64.6,27.6L64.6,27.6z"/>
	</g>
</g>
<g>
	<g>
		<path class="st0" d="M23.7,175.8c-1.7-10.7-1.2-21.8,1.5-32.3c2.4-9.4,6.4-18.2,11-26.8C45.6,99,57,82.2,62.8,62.7
			C66.3,50.9,68,38.6,68,26.3c0-3.2-5-3.2-5,0C63,37.2,61.6,48,58.8,58.5C56.1,68.5,52,77.9,47.1,87c-9.3,17.4-20.8,34-26.3,53.2
			c-3.4,12-4,24.7-2,37c0.2,1.3,1.9,2.1,3.1,1.7C23.3,178.5,23.9,177.2,23.7,175.8L23.7,175.8z"/>
	</g>
</g>
<g>
	<g>
		<path class="st0" d="M62.9,26c-2.9,1.5-5.1,4-6.9,6.7c-1.9,2.9-3.4,6-4.7,9.2c-0.5,1.2,0.5,2.8,1.7,3.1c1.4,0.3,2.6-0.4,3.1-1.7
			c0.1-0.2,0.1-0.3,0.2-0.5c0.3-0.8-0.1,0.2,0.1-0.3c0.2-0.4,0.3-0.7,0.5-1.1c0.3-0.7,0.7-1.4,1-2c0.7-1.3,1.4-2.7,2.3-3.9
			c0.4-0.6,0.7-1.1,1.1-1.6c-0.2,0.3,0,0,0.1-0.1c0.1-0.1,0.2-0.2,0.3-0.4c0.2-0.3,0.5-0.5,0.7-0.8c0.2-0.2,0.5-0.5,0.7-0.7
			c0.1-0.1,0.2-0.2,0.3-0.3c0,0,0.4-0.3,0.2-0.2c-0.2,0.2,0.2-0.2,0.3-0.2c0.1-0.1,0.3-0.2,0.4-0.3c0.3-0.2,0.7-0.4,1-0.6
			c1.2-0.6,1.6-2.3,0.9-3.4C65.5,25.7,64.1,25.3,62.9,26L62.9,26z"/>
	</g>
</g>
</svg>
